<?xml version="1.0" encoding="UTF-8"?><svg id="a" xmlns="http://www.w3.org/2000/svg" viewBox="0 0 21.68 24.19"><path d="M11.14,20.89s-.69,4.34-4,3.06-2.37-3.6-1.28-5.28,1.04-2.71,1.04-2.71c0,0-.84-.52-1.78,.39-.65,.64-4.44,.94-5.04-2.32s2.32-4,3.46-4c.44,0,.96,.01,1.44,.03,.52,.02,.79-.6,.44-.97l-1.64-1.73S1.71,3.91,5.16,2.38c3.46-1.53,4.81,.12,4.76,1.81,0,0-.38,2.87,.57,2.76s1.19-2.11,1.19-2.76S12.83-1.02,16.35,.21s.46,5.55,.46,5.55l-1.68,2.41,1.11,.42s1.07-1.15,3.14-1,2.3,2.68,2.3,3.6-.61,2.14-2.07,2.45c-.72,.15-1.58,.11-2.26,.02-.44-.06-.73,.44-.47,.81l1.66,2.37s2.27,2.76-.59,4.89c-2.86,2.12-4.39-.74-4.69-1.73,0,0-.47-2.31-1.26-2.31s-.86,3.2-.86,3.2Z"/></svg>