<?xml version="1.0" encoding="UTF-8"?><svg id="a" xmlns="http://www.w3.org/2000/svg" viewBox="0 0 11.74 11.7"><path d="M4.42,2.43c.27,.29,.74,.23,.93-.11l.86-1.58S6.64-.11,7.44,.01c.6,.09,.61,1.85,.58,2.74-.01,.29,.2,.54,.49,.59l1.97,.3s1.26,.34,1.26,.97-.93,.8-1.31,.84c-.18,.02-.66,.13-1.12,.23s-.6,.63-.29,.96l1.37,1.47s.55,1.6-.13,2.11-1.92-.38-1.92-.38l-1.21-1.09c-.32-.29-.84-.14-.95,.28l-.43,1.65s-.34,1.14-1.18,1.01-.93-2.57-.93-2.57l.07-.4c.07-.38-.26-.73-.64-.68l-1.49,.19S.23,8.49,.02,7.6c-.17-.72,1.03-1.53,2.02-1.94,.32-.13,.47-.51,.3-.82l-.93-1.67S.9,1.53,1.91,.98c.69-.37,1.83,.71,2.51,1.44Z"/></svg>