<?xml version="1.0" encoding="UTF-8"?><svg id="a" xmlns="http://www.w3.org/2000/svg" viewBox="0 0 20.18 20.27"><path d="M9.78,4.81c.04,.09,.17,.1,.21,.01C10.55,3.77,12.91-.43,14.65,.05c1.98,.55,.88,3.99,.88,3.99l-.91,2.47c-.11,.31,.15,.63,.48,.57l2.89-.54s1.56-.36,2.11,.84-2.11,2.34-2.11,2.34l-2.97,1.4,1.47,2.92s1.36,3.12-.42,4.29-3.18-1.66-3.18-1.66l-.92-1.49c-.17-.28-.56-.31-.78-.07l-2.03,2.27s-2.82,3.9-4.48,2.63,.39-5,.97-5.88l.46-.68c.17-.26,0-.61-.31-.63l-3.07-.21S.07,12.29,0,11.16s1.43-2.47,2.92-2.89c.61-.17,1.12-.29,1.51-.37,.44-.09,.7-.55,.55-.98-.62-1.78-1.79-5.86,.18-6.77,2.23-1.03,4.18,3.54,4.62,4.66Z"/></svg>