<?xml version="1.0" encoding="utf-8"?>
<!-- Generator: Adobe Illustrator 26.2.1, SVG Export Plug-In . SVG Version: 6.00 Build 0)  -->
<svg version="1.1" id="a" xmlns="http://www.w3.org/2000/svg" xmlns:xlink="http://www.w3.org/1999/xlink" x="0px" y="0px"
	width="832" height="615" viewBox="0 0 83.2 61.5" style="enable-background:new 0 0 83.2 61.5;" xml:space="preserve">
<path class="flower" d="M10.1,39.2c0,0,3.4-4,16.4-4.9s28.3-4.4,44.3,3.2c5,2.3,6.6,5.6,6.5,8.9c0,0,0.1,10.4-12.1,8c-4.9-0.9-7.6-3.7-9-6.7
	c0,0-1.3-1.8,0.6-4.4s6.6-0.7,9.4,3.1c0,0-3.4-0.9-3.7,1.8c-0.4,3.1,3.2,3.9,6.1,3.9c1,0,2.8-0.7,3.4-1.5c1.6-2,0.4-4.9-1.3-6.8
	c-1.2-1.3-3-2.9-6.1-4.8c-8.2-5-14-0.9-14-0.9s-6,3.7,1.3,12.3c4.2,5,9.8,7.1,13.8,8c5.9,1.3,12.1-0.9,15.7-5.7
	c0.2-0.2,0.3-0.4,0.5-0.7c3.9-6-1.3-13.1-5.4-16c-2.8-2-7-3.9-9.6-5c-0.7-0.3-0.6-1.3,0.1-1.5c2.3-0.8,5.9-2.3,8.9-5
	c5.7-5,4.2-11.4,2.8-15.1C77.2,5.7,72.9,0.1,66,0s-9.8,7.8-9.6,10.5c0.3,3.1,2.8,7.5,6.5,6.2s1.4-4.9-0.1-7.1c0,0,3.2-4.6,8.1-1
	s3.8,9.4,2.5,11.1c-1.3,1.7-11.4,7.8-19.6,7.5c-8.2-0.3-19.4-0.1-35.9,4.3C10,33.6,2,38.2,0.2,41.9c-0.8,1.6,0.7,3.4,2.4,2.9
	c4.7-1.4,12.5-3.4,15.6-3.7c4.6-0.3,8.1,0.4,11.4,3.6c3.2,3.2,3.1,7.6,1.1,10.9c0,0,0.4-5.2-3.5-6.1s-5.6,3.4-5.2,5.1
	c0.4,1.7,3.5,7.5,8.7,6.8c5.3-0.7,6.9-7.6,5.9-10.5c-1-2.9-2.3-10.7-9.6-12.8C19.9,36,10,39.2,10.1,39.2L10.1,39.2z"/>
</svg>
