<?xml version="1.0" encoding="utf-8"?>
<!-- Generator: Adobe Illustrator 26.2.1, SVG Export Plug-In . SVG Version: 6.00 Build 0)  -->
<svg version="1.1" id="a" xmlns="http://www.w3.org/2000/svg" xmlns:xlink="http://www.w3.org/1999/xlink" x="0px" y="0px"
	 width="139" height="134" viewBox="0 0 13.9 13.4" style="enable-background:new 0 0 13.9 13.4;" xml:space="preserve">
<path class="flower" d="M6.6,3.4C6.7,3.7,7,3.7,7.2,3.5c0.7-1,2.3-2.9,3.3-2.2s-0.4,3.1-1.1,4.2C9.3,5.7,9.4,6,9.7,6h2.6c0,0,1.6,0.2,1.6,1.4
	s-1.5,1-1.5,1h-2c-0.2,0-0.4,0.3-0.4,0.5l0.9,2.8c0,0,0,1.6-0.6,1.8c-0.6,0.2-1.7-0.3-2.2-1.4c-0.2-0.5-0.5-1.1-0.6-1.4
	c-0.1-0.3-0.5-0.3-0.7-0.1l-1.1,1.1c0,0-1.5,1.6-2.8,0.9c-1.3-0.7,0-2.9,0-2.9l1.1-1.3c0.2-0.2,0.1-0.5-0.2-0.5L1.8,7.6
	C1.8,7.6,0,7.3,0,6s2.3-1,2.3-1h1.3C3.8,5,4,4.7,3.9,4.4L3.2,2.4c0,0-0.4-2.1,1.1-2.4C5.4-0.2,6.2,2.2,6.6,3.4z"/>
</svg>
