<?xml version="1.0" encoding="UTF-8"?><svg id="a" xmlns="http://www.w3.org/2000/svg" viewBox="0 0 15.57 14.57"><path d="M6.75,2.97c.18,.22,.48,.27,.72,.11,.39-.25,1.03-.77,1.94-1.79C11.05-.56,11.6,.12,11.6,.12c0,0,1.16,.4,0,2.35-.3,.5-.54,.9-.73,1.21-.28,.44,.08,1.01,.6,.95l2.2-.23s1.59-.16,1.88,1.37-2.04,1.67-2.04,1.67l-1.44,.31c-.39,.08-.59,.52-.4,.87l.92,1.71s.82,.87,.37,1.56-1.67-.11-1.67-.11l-1.37-.85c-.47-.29-1.09-.15-1.4,.31l-1.14,1.76s-.96,1.91-2.02,1.5-.68-1.85-.44-2.53c.14-.41,.48-1.09,.72-1.58,.14-.27-.06-.58-.36-.58H3.28S-.03,9.7,0,8.33s3.11-1.64,3.11-1.64l.62-.14c.73-.16,1.07-1.01,.65-1.63l-.96-1.41s-.82-1.47-.07-2.02c.69-.5,2.42,.26,3.4,1.48Z"/></svg>