<?xml version="1.0" encoding="UTF-8"?><svg id="a" xmlns="http://www.w3.org/2000/svg" viewBox="0 0 18.48 18.29"><path d="M8.92,3.97c.16,.34,.6,.42,.86,.15,.6-.64,1.62-1.66,2.47-2.32,1.32-1.01,1.67-.55,1.87-.37s.25,1.39-.19,2.99c-.14,.5-.25,.91-.35,1.24-.15,.49,.26,.96,.76,.9l1.43-.18s2.12-.5,2.65,.98-2.28,2.88-2.28,2.88l-1.72,.68c-.44,.18-.63,.7-.4,1.12l.97,1.76s1.3,2.47-.39,3.31-2.81-1.38-2.81-1.38l-.56-.74c-.21-.28-.64-.27-.84,.02l-1.15,1.66s-1.93,2.37-3.72,1.41-1.25-2.63-.86-3.44c.21-.44,.41-1.12,.54-1.64,.1-.38-.19-.75-.59-.74l-1.13,.02S.14,12.23,0,10.9s2.29-3.62,4.89-3.72l.48,.03s-1.31-4.24-.92-5.73S5.05,.21,5.57,.02c.49-.17,1.75,.49,3.35,3.95Z"/></svg>