<?xml version="1.0" encoding="UTF-8"?><svg id="a" xmlns="http://www.w3.org/2000/svg" viewBox="0 0 14.4 16.4"><path d="M5.02,4.97c.27,.23,.68,.06,.71-.29l.25-2.84S6.18-.06,7.88,0s1.57,2.45,1.57,2.45l-.1,2.54c-.01,.38,.38,.65,.73,.5l2.25-.98s1.31-.75,1.93,.13-1.31,2.23-1.31,2.23l-1.65,.89c-.4,.22-.42,.79-.03,1.03l1.81,1.13s2.03,1.73,1.05,3.01-2.52,0-2.52,0l-2.02-1.38c-.23-.16-.54-.04-.6,.23l-.62,2.46s-.56,2.52-2.36,2.13-1.34-2.98-1.34-2.98l.24-1.95c.04-.33-.29-.59-.6-.47l-1.7,.65s-2.09,.85-2.55-.36,1.73-2.52,1.73-2.52l1.34-.8c.26-.15,.28-.51,.05-.7l-1.72-1.42c-.6-.5-1.02-1.21-1.08-1.99-.03-.39,.02-.79,.26-1.07,.69-.82,1.8-.29,2.42,.43,.39,.45,1.32,1.26,1.95,1.79Z"/></svg>