<?xml version="1.0" encoding="UTF-8"?><svg id="a" xmlns="http://www.w3.org/2000/svg" viewBox="0 0 14 13.63"><path d="M6.64,3.4c.08,.28,.44,.34,.6,.11,.74-1.02,2.28-2.86,3.37-2.22s-.36,3.15-1.11,4.26c-.15,.23,0,.53,.28,.53h2.64s1.57,.17,1.57,1.4-1.53,1.03-1.53,1.03h-2c-.25,.01-.43,.26-.36,.5l.91,2.8s-.04,1.61-.56,1.78-1.71-.33-2.17-1.36c-.24-.54-.46-1.07-.63-1.45-.11-.27-.47-.33-.66-.11l-1.06,1.15s-1.49,1.57-2.85,.87,0-2.89,0-2.89l1.13-1.31c.17-.2,.05-.5-.21-.53l-2.24-.26s-1.78-.33-1.78-1.57,2.27-.99,2.27-.99h1.33c.28,0,.49-.28,.4-.55l-.69-2.18S2.85,.26,4.38,.01c1.13-.18,1.92,2.16,2.26,3.39Z"/></svg>