<?xml version="1.0" encoding="UTF-8"?><svg id="a" xmlns="http://www.w3.org/2000/svg" viewBox="0 0 13.9 14.63"><path d="M.14,14.51C-.92,13.51,4.39,6.23,6.98,3.51c1.29-1.36,2.68-2.38,3.87-2.94l.11-.05,.13-.07c.09-.05,.18-.09,.27-.13,.18-.08,.37-.15,.56-.21,.1-.03,.19-.05,.29-.07,.1-.02,.19-.03,.28-.03,.17,0,.33,0,.47,.05,.29,.07,.5,.22,.65,.39,.15,.18,.23,.37,.26,.55,.06,.34-.06,.6-.14,.95-.02,.09-.04,.18-.05,.27,0,.05-.01,.09,0,.13,0,.04,0,.09,0,.13,0,.09-.01,.19-.03,.29,0,.05-.02,.11-.04,.17l-.02,.09-.04,.11c-.5,1.22-1.46,2.65-2.75,4.01C8.21,9.86,1.19,15.52,.14,14.51Z"/></svg>