<?xml version="1.0" encoding="UTF-8"?><svg id="a" xmlns="http://www.w3.org/2000/svg" width="1135" height="1267" viewBox="0 0 11.35 12.67">
<path class="flower" d="M5.83,10.94s-.36,2.27-2.09,1.6-1.24-1.89-.67-2.77,.54-1.42,.54-1.42c0,0-.44-.27-.93,.2-.34,.33-2.33,.49-2.64-1.21s1.21-2.09,1.81-2.09c.23,0,.5,0,.76,.02,.27,.01,.42-.31,.23-.51l-.86-.9s-1.09-1.81,.72-2.61,2.52,.06,2.49,.95c0,0-.2,1.5,.3,1.44s.62-1.1,.62-1.44S6.72-.53,8.56,.11s.24,2.91,.24,2.91l-.88,1.26,.58,.22s.56-.6,1.64-.52,1.2,1.4,1.2,1.88-.32,1.12-1.08,1.28c-.38,.08-.83,.06-1.18,.01-.23-.03-.38,.23-.25,.42l.87,1.24s1.19,1.45-.31,2.56-2.3-.39-2.46-.9c0,0-.24-1.21-.66-1.21s-.45,1.68-.45,1.68Z"/></svg>